# xmcd CD database file
#
# Track frame offsets:
#	150
#	16792
#	32170
#	48582
#	69652
#	89705
#	107450
#	119260
#	133797
#	148130
#	163542
#	188255
#	202347
#
# Disc length: 3032 seconds
#
# Revision: 0
# Processed by: cddbd v1.5.2PL0 Copyright (c) Steve Scherf et al.
# Submitted via: CDex 1.51
#
DISCID=b90bd60d
DTITLE=Kathy N. Right - Long Way Around
DYEAR=1995
DGENRE=Country
TTITLE0=Queen Of The Hop
TTITLE1=Mary's Song
TTITLE2=Coulda, Shoulda, Woulda
TTITLE3=Blind Man's Bluff
TTITLE4=Last Call
TTITLE5=After Awhile
TTITLE6=One Step At A Time
TTITLE7=Hazardous Blues
TTITLE8=My Baby Used To Hold Me
TTITLE9=Headstrong Heart
TTITLE10=You're Not Drinkin' Enough
TTITLE11=Don't Get Me Started
TTITLE12=Raise Your Head
EXTD=YEAR: 1995
EXTT0=
EXTT1=
EXTT2=
EXTT3=
EXTT4=
EXTT5=
EXTT6=
EXTT7=
EXTT8=
EXTT9=
EXTT10=
EXTT11=
EXTT12=
PLAYORDER=
